<?xml version="1.0" encoding="utf-8"?>
<!-- Generator: Adobe Illustrator 24.3.0, SVG Export Plug-In . SVG Version: 6.00 Build 0)  -->
<svg version="1.1" id="Layer_1" xmlns="http://www.w3.org/2000/svg" xmlns:xlink="http://www.w3.org/1999/xlink" x="0px" y="0px"
	 viewBox="0 0 500 500" style="enable-background:new 0 0 500 500;" xml:space="preserve">
<style type="text/css">
	.st0{fill:#4CDA55;}
</style>
<g>
	<path vector-effect="non-scaling-stroke" class="st0" d="M427.4,153.5c-14.8,13.3-36,7.4-36-18.2V73.7c0-18.7-15.3-34-34-34h-78.8
		v59.6h32c3.4,0,5.4,3.9,3,6.4L253,181.1c-2,2.5-5.9,2.5-7.9,0l-61.6-74.9c-2-2.5-0.5-6.4,3-6.4h32V39.7h-77.8
		c-18.2,0-33,14.8-33,33v62.1c0,25.6-21.2,31-36,18.2C47,131.3,9.6,143.2,8.1,182.1c1.5,39.4,38.9,50.7,63.1,29.1
		c14.8-13.3,36.5-7.4,36.5,18.2v61.1c0,18.2,14.8,33,33,33H219v53.7h-32c-3.4,0-5.4,3.9-3,6.4l61.6,74.9c2,2.5,5.9,2.5,7.9,0
		l61.6-74.9c2-2.5,0.5-6.4-3-6.4h-32V324h79.3c18.2,0,33-14.8,33-33v-61.1c0-25.6,20.7-31,36-18.2c24.6,21.7,61.6,9.9,63.6-29.1
		C488.9,143.2,451.5,131.8,427.4,153.5"/>
</g>
</svg>
